<svg width="32" height="32" viewBox="0 0 32 32" fill="none" xmlns="http://www.w3.org/2000/svg">
<path d="M17.1067 2.90668C16.7592 2.74821 16.3818 2.6662 16 2.6662C15.6181 2.6662 15.2407 2.74821 14.8933 2.90668L3.46666 8.10667C3.23006 8.211 3.0289 8.38187 2.88768 8.59848C2.74645 8.81509 2.67126 9.06809 2.67126 9.32667C2.67126 9.58526 2.74645 9.83826 2.88768 10.0549C3.0289 10.2715 3.23006 10.4423 3.46666 10.5467L14.9067 15.76C15.2541 15.9185 15.6315 16.0005 16.0133 16.0005C16.3952 16.0005 16.7726 15.9185 17.12 15.76L28.56 10.56C28.7966 10.4557 28.9978 10.2848 29.139 10.0682C29.2802 9.85159 29.3554 9.59859 29.3554 9.34001C29.3554 9.08143 29.2802 8.82843 29.139 8.61182C28.9978 8.39521 28.7966 8.22433 28.56 8.12001L17.1067 2.90668Z" stroke="#FF9F1C" stroke-width="1.5" stroke-linecap="round" stroke-linejoin="round"/>
<path d="M2.66666 16C2.66603 16.255 2.73855 16.5049 2.87562 16.7199C3.01269 16.935 3.20855 17.1062 3.43999 17.2133L14.9067 22.4267C15.2523 22.5832 15.6273 22.6641 16.0067 22.6641C16.386 22.6641 16.7611 22.5832 17.1067 22.4267L28.5467 17.2267C28.7827 17.1206 28.9827 16.9481 29.1224 16.7303C29.2621 16.5125 29.3354 16.2587 29.3333 16" stroke="#FF9F1C" stroke-width="1.5" stroke-linecap="round" stroke-linejoin="round"/>
<path d="M2.66666 22.6667C2.66603 22.9217 2.73855 23.1715 2.87562 23.3866C3.01269 23.6016 3.20855 23.7729 3.43999 23.88L14.9067 29.0933C15.2523 29.2498 15.6273 29.3308 16.0067 29.3308C16.386 29.3308 16.7611 29.2498 17.1067 29.0933L28.5467 23.8933C28.7827 23.7872 28.9827 23.6148 29.1224 23.397C29.2621 23.1792 29.3354 22.9254 29.3333 22.6667" stroke="#FF9F1C" stroke-width="1.5" stroke-linecap="round" stroke-linejoin="round"/>
</svg>
