<svg width="1440" height="1000" viewBox="0 0 1440 1000" fill="none" xmlns="http://www.w3.org/2000/svg">
<g clip-path="url(#clip0_778_70)">
<rect width="1440" height="1000" fill="black"/>
<g filter="url(#filter0_f_778_70)">
<path fill-rule="evenodd" clip-rule="evenodd" d="M130.748 225.27C60.8336 189.537 -14.4723 141.107 -88.1886 161.393C-170.166 183.951 -235.533 251.848 -246.104 328.972C-256.144 402.229 -192.909 467.424 -138.188 526.192C-93.8682 573.788 -35.8793 603.047 28.4375 623.812C99.5235 646.762 173.9 671.606 242.106 648.969C320.19 623.054 409.273 573.466 409.616 497.302C409.954 422.212 301.935 387.902 243.537 330.935C205.286 293.622 179.621 250.248 130.748 225.27Z" fill="url(#paint0_linear_778_70)" fill-opacity="0.28"/>
</g>
<g filter="url(#filter1_d_778_70)">
<rect width="73" height="1024" transform="matrix(-1 0 0 1 390.713 0)" fill="black" fill-opacity="0.01"/>
</g>
<g filter="url(#filter2_d_778_70)">
<rect width="77" height="1024" transform="matrix(-1 0 0 1 317.713 0)" fill="black" fill-opacity="0.01"/>
</g>
<g filter="url(#filter3_d_778_70)">
<rect width="81" height="1024" transform="matrix(-1 0 0 1 240.713 0)" fill="black" fill-opacity="0.01"/>
</g>
<g filter="url(#filter4_d_778_70)">
<rect width="85" height="1024" transform="matrix(-1 0 0 1 159.713 0)" fill="black" fill-opacity="0.01"/>
</g>
<g filter="url(#filter5_d_778_70)">
<rect width="89" height="1024" transform="matrix(-1 0 0 1 74.7134 0)" fill="black" fill-opacity="0.01"/>
</g>
<g filter="url(#filter6_f_778_70)">
<path fill-rule="evenodd" clip-rule="evenodd" d="M1304.97 225.27C1374.88 189.537 1450.19 141.107 1523.9 161.393C1605.88 183.951 1671.25 251.848 1681.82 328.972C1691.86 402.229 1628.62 467.424 1573.9 526.192C1529.58 573.788 1471.59 603.047 1407.28 623.812C1336.19 646.762 1261.81 671.606 1193.61 648.969C1115.52 623.054 1026.44 573.466 1026.1 497.302C1025.76 422.212 1133.78 387.902 1192.18 330.935C1230.43 293.622 1256.09 250.248 1304.97 225.27Z" fill="url(#paint1_linear_778_70)" fill-opacity="0.28"/>
</g>
<g filter="url(#filter7_d_778_70)">
<rect width="73" height="1024" transform="translate(1045)" fill="black" fill-opacity="0.01"/>
</g>
<g filter="url(#filter8_d_778_70)">
<rect width="77" height="1024" transform="translate(1118)" fill="black" fill-opacity="0.01"/>
</g>
<g filter="url(#filter9_d_778_70)">
<rect width="81" height="1024" transform="translate(1195)" fill="black" fill-opacity="0.01"/>
</g>
<g filter="url(#filter10_d_778_70)">
<rect width="85" height="1024" transform="translate(1276)" fill="black" fill-opacity="0.01"/>
</g>
<g filter="url(#filter11_d_778_70)">
<rect width="89" height="1024" transform="translate(1361)" fill="black" fill-opacity="0.01"/>
</g>
<g filter="url(#filter12_d_778_70)">
<mask id="path-3-inside-1_778_70" fill="white">
<path d="M64.842 285.15C61.5762 275.104 67.0734 264.311 77.1203 261.046L259.036 201.913C269.083 198.647 279.875 204.145 283.141 214.192L319.441 325.867C322.707 335.914 317.21 346.706 307.163 349.972L125.247 409.104C115.2 412.37 104.408 406.873 101.142 396.826L64.842 285.15Z"/>
</mask>
<path d="M64.842 285.15C61.5762 275.104 67.0734 264.311 77.1203 261.046L259.036 201.913C269.083 198.647 279.875 204.145 283.141 214.192L319.441 325.867C322.707 335.914 317.21 346.706 307.163 349.972L125.247 409.104C115.2 412.37 104.408 406.873 101.142 396.826L64.842 285.15Z" fill="#FBBF7D" fill-opacity="0.1" shape-rendering="crispEdges"/>
<path d="M77.1203 261.046L77.3174 261.652L259.233 202.52L259.036 201.913L258.839 201.307L76.9232 260.439L77.1203 261.046ZM283.141 214.192L282.534 214.389L318.835 326.064L319.441 325.867L320.048 325.67L283.747 213.994L283.141 214.192ZM307.163 349.972L306.966 349.365L125.05 408.498L125.247 409.104L125.444 409.71L307.36 350.578L307.163 349.972ZM101.142 396.826L101.749 396.628L65.4483 284.953L64.842 285.15L64.2356 285.348L100.536 397.023L101.142 396.826ZM125.247 409.104L125.05 408.498C115.338 411.654 104.906 406.341 101.749 396.628L101.142 396.826L100.536 397.023C103.911 407.405 115.062 413.085 125.444 409.71L125.247 409.104ZM319.441 325.867L318.835 326.064C321.992 335.776 316.678 346.208 306.966 349.365L307.163 349.972L307.36 350.578C317.742 347.203 323.422 336.051 320.048 325.67L319.441 325.867ZM259.036 201.913L259.233 202.52C268.945 199.363 279.377 204.677 282.534 214.389L283.141 214.192L283.747 213.994C280.372 203.613 269.221 197.932 258.839 201.307L259.036 201.913ZM77.1203 261.046L76.9232 260.439C66.5413 263.814 60.8609 274.966 64.2356 285.348L64.842 285.15L65.4483 284.953C62.2914 275.241 67.6054 264.809 77.3174 261.652L77.1203 261.046Z" fill="#FBBF7D" fill-opacity="0.1" mask="url(#path-3-inside-1_778_70)"/>
<path d="M85.2486 291.72L84.9754 290.879L91.508 288.756L91.7812 289.596L88.9669 290.511L91.6574 298.788L90.7406 299.086L88.0501 290.809L85.2486 291.72ZM98.4698 296.574L97.5529 296.872L94.5892 287.754L97.9892 286.649C99.8356 286.049 101.287 286.703 101.813 288.32C102.239 289.632 101.85 290.772 100.782 291.472L104.009 294.773L102.99 295.104L99.9018 291.927L97.2404 292.792L98.4698 296.574ZM95.7751 288.284L96.9713 291.964L99.48 291.149C100.741 290.739 101.256 289.811 100.879 288.652C100.494 287.468 99.5062 287.071 98.2582 287.477L95.7751 288.284ZM112.98 291.857L107.517 293.633L104.554 284.515L110.004 282.744L110.277 283.584L105.744 285.058L106.812 288.343L110.925 287.006L111.194 287.834L107.081 289.171L108.161 292.494L112.707 291.017L112.98 291.857ZM117.578 290.362L116.661 290.661L113.697 281.543L114.627 281.241L122.111 287.199L119.644 279.61L120.548 279.316L123.512 288.434L122.608 288.727L115.111 282.773L117.578 290.362ZM130.334 286.216L127.558 287.118L124.595 278.001L127.345 277.107C130.096 276.213 132.526 277.45 133.411 280.175C134.297 282.9 133.072 285.326 130.334 286.216ZM127.58 277.96L125.785 278.543L128.202 285.98L130.023 285.388C132.251 284.664 133.206 282.748 132.469 280.482C131.728 278.202 129.834 277.227 127.58 277.96ZM136.322 274.189L139.285 283.306L138.368 283.604L135.405 274.487L136.322 274.189ZM144.238 281.696L143.321 281.995L140.358 272.877L141.287 272.575L148.772 278.533L146.305 270.944L147.209 270.65L150.172 279.768L149.268 280.061L141.771 274.107L144.238 281.696ZM155.307 268.806C153.206 269.489 152.386 271.473 153.144 273.803C153.914 276.172 155.782 277.156 157.832 276.489C159.361 275.992 160.61 274.77 159.898 272.579L159.745 272.108L156.447 273.18L156.182 272.365L160.346 271.012L161.952 275.953L161.226 276.188L160.665 274.766C160.475 275.827 159.553 276.887 158.076 277.368C155.491 278.208 153.104 276.928 152.189 274.114C151.282 271.325 152.428 268.785 155.038 267.936C156.961 267.311 158.807 267.922 159.702 269.461L158.708 269.784C157.921 268.66 156.644 268.371 155.307 268.806Z" fill="#99A1AF"/>
<path d="M235.411 246.803C232.146 236.756 237.643 225.964 247.69 222.698C257.737 219.432 268.529 224.929 271.795 234.976C275.06 245.023 269.563 255.815 259.516 259.081C249.469 262.347 238.677 256.85 235.411 246.803Z" fill="#F0B100" fill-opacity="0.1"/>
<path d="M251.566 243.647C252.069 243.483 252.486 243.127 252.726 242.656C252.965 242.185 253.008 241.638 252.845 241.136C252.505 240.09 251.973 239.743 251.348 239.108C250.007 237.748 250.179 236.091 251.386 234.068C252.381 235.839 254.109 237.289 256.019 238.009C257.929 238.729 259.155 239.923 259.648 241.439C259.875 242.135 259.962 242.87 259.904 243.6C259.847 244.331 259.646 245.043 259.314 245.696C258.981 246.349 258.523 246.929 257.966 247.405C257.409 247.881 256.764 248.243 256.067 248.469C255.37 248.696 254.636 248.783 253.905 248.725C253.175 248.668 252.463 248.467 251.81 248.135C251.157 247.802 250.576 247.344 250.1 246.787C249.624 246.23 249.263 245.585 249.036 244.888C248.752 244.014 248.799 243.043 249.055 242.368C249.219 242.87 249.575 243.287 250.046 243.527C250.517 243.767 251.064 243.81 251.566 243.647Z" stroke="#F0B100" stroke-width="1.59404" stroke-linecap="round" stroke-linejoin="round"/>
<path d="M106.336 347.907L110.702 346.488L109.867 339.76L104.803 341.406L104.34 337.309L109.404 335.662L108.254 326.333L112.315 325.013L113.464 334.343L120.144 332.171L118.995 322.842L123.099 321.508L124.248 330.837L128.745 329.375L129.252 333.459L124.711 334.935L125.547 341.663L130.437 340.073L130.943 344.157L126.01 345.76L127.16 355.089L123.099 356.409L121.949 347.08L115.226 349.266L116.376 358.595L112.315 359.915L111.165 350.585L106.799 352.005L106.336 347.907ZM114.763 345.168L121.443 342.997L120.651 336.255L113.927 338.44L114.763 345.168ZM137.283 321.145L130.647 323.302L129.398 319.46L140.139 315.969L150.399 347.535L146.295 348.869L137.283 321.145Z" fill="white"/>
<path d="M127.8 377.768L124.321 384.598L120.304 382.552L117.643 387.774" stroke="#FF9F1C" stroke-width="1.27523" stroke-linecap="round" stroke-linejoin="round"/>
<path d="M124.162 378.951L127.8 377.768L128.983 381.407" stroke="#FF9F1C" stroke-width="1.27523" stroke-linecap="round" stroke-linejoin="round"/>
<path d="M132.385 374.853L132.112 374.013L138.644 371.889L138.918 372.73L136.103 373.645L138.794 381.922L137.877 382.22L135.187 373.943L132.385 374.853ZM140.299 378.025C139.687 376.14 140.568 374.347 142.377 373.76C144.185 373.172 145.952 374.104 146.565 375.989C147.173 377.861 146.292 379.654 144.483 380.241C142.675 380.829 140.908 379.897 140.299 378.025ZM141.187 377.723C141.659 379.174 142.902 379.882 144.227 379.452C145.538 379.025 146.141 377.717 145.669 376.266C145.205 374.839 143.945 374.123 142.633 374.549C141.309 374.98 140.723 376.296 141.187 377.723ZM149.845 381.3L146.968 372.45L147.732 372.202L148.227 373.421C148.35 372.325 149.066 371.585 150.098 371.25C151.881 370.67 153.393 371.685 153.998 373.544C154.602 375.403 154.026 377.14 152.205 377.731C151.161 378.071 150.188 377.894 149.465 377.144L150.724 381.015L149.845 381.3ZM148.861 375.242C149.321 376.656 150.446 377.43 151.795 376.992C153.132 376.557 153.574 375.273 153.115 373.86C152.651 372.433 151.543 371.667 150.206 372.102C148.856 372.54 148.398 373.816 148.861 375.242ZM161.048 374.688L160.131 374.986L157.167 365.868L160.567 364.763C162.414 364.163 163.865 364.818 164.391 366.435C164.817 367.746 164.428 368.887 163.36 369.586L166.587 372.887L165.568 373.219L162.48 370.041L159.818 370.906L161.048 374.688ZM158.353 366.398L159.549 370.078L162.058 369.263C163.319 368.853 163.834 367.925 163.457 366.767C163.072 365.582 162.084 365.185 160.836 365.591L158.353 366.398ZM169.656 372.059C168.345 372.485 167.328 371.999 166.976 370.917C166.608 369.783 167.242 368.789 168.643 368.206L170.627 367.379L170.561 367.175C170.168 365.965 169.318 365.819 168.413 366.113C167.344 366.461 166.864 367.151 167.133 367.979L166.331 368.24C165.925 366.992 166.683 365.859 168.199 365.366C169.625 364.902 170.901 365.276 171.431 366.906L172.726 370.892L171.988 371.132L171.521 370.087C171.392 370.988 170.7 371.719 169.656 372.059ZM169.628 371.279C170.927 370.857 171.384 369.709 170.95 368.372L170.842 368.041L169.067 368.773C167.941 369.251 167.636 369.914 167.859 370.601C168.103 371.353 168.788 371.553 169.628 371.279ZM175.791 369.896L174.925 370.177L173.162 364.752L171.927 365.154L171.687 364.415L172.922 364.014L172.289 362.066L173.154 361.784L173.788 363.732L175.023 363.331L175.263 364.069L174.028 364.471L175.791 369.896ZM180.743 368.455C178.935 369.043 177.303 368.137 176.674 366.202C176.049 364.279 176.815 362.565 178.572 361.994C180.241 361.452 181.759 362.268 182.326 364.012L182.467 364.445L177.564 366.039C178.116 367.521 179.187 368.13 180.512 367.7C181.518 367.373 182.026 366.728 181.991 365.839L182.831 365.566C182.922 366.972 182.195 367.983 180.743 368.455ZM178.817 362.745C177.658 363.122 177.142 364.134 177.383 365.394L181.381 364.094C180.996 362.91 179.976 362.369 178.817 362.745ZM187.305 366.322C185.51 366.906 184.006 365.874 183.406 364.027C182.801 362.168 183.403 360.424 185.236 359.828C186.255 359.497 187.215 359.677 187.938 360.428L186.543 356.137L187.422 355.851L190.439 365.134L189.675 365.383L189.176 364.151C189.054 365.247 188.337 365.987 187.305 366.322ZM187.197 365.47C188.547 365.031 189.005 363.756 188.542 362.33C188.082 360.916 186.958 360.141 185.608 360.58C184.271 361.015 183.829 362.299 184.289 363.712C184.752 365.138 185.86 365.905 187.197 365.47ZM197.523 362.832L192.999 357.488L193.941 357.181L196.824 360.637C197.135 361.029 197.437 361.395 197.684 361.766C197.662 361.308 197.695 360.847 197.728 360.343L198.054 355.844L198.958 355.551L198.402 362.546L197.523 362.832ZM200.875 359.827L201.715 359.554C201.947 360.267 202.627 360.539 203.493 360.258C204.448 359.947 204.876 359.357 204.66 358.695C204.495 358.186 204.145 357.976 203.361 358.034L202.217 358.11C201.061 358.19 200.356 357.799 200.083 356.959C199.731 355.877 200.412 354.895 201.736 354.464C203.035 354.042 204.108 354.482 204.518 355.616L203.665 355.893C203.408 355.188 202.775 354.93 201.947 355.199C201.081 355.48 200.717 356.007 200.932 356.669C201.085 357.14 201.524 357.363 202.253 357.31L203.397 357.233C204.553 357.153 205.199 357.493 205.488 358.384C205.849 359.492 205.142 360.524 203.741 360.979C202.353 361.43 201.247 360.973 200.875 359.827ZM211.93 358.149L211.051 358.434L208.034 349.151L208.912 348.865L211.93 358.149ZM215.618 357.119C214.307 357.545 213.29 357.059 212.938 355.976C212.57 354.843 213.204 353.849 214.605 353.266L216.589 352.438L216.523 352.235C216.13 351.025 215.28 350.879 214.376 351.173C213.306 351.52 212.826 352.211 213.095 353.039L212.293 353.3C211.888 352.052 212.646 350.918 214.161 350.426C215.587 349.962 216.863 350.336 217.393 351.966L218.689 355.952L217.95 356.192L217.484 355.147C217.354 356.048 216.663 356.779 215.618 357.119ZM215.59 356.339C216.889 355.917 217.347 354.769 216.912 353.432L216.804 353.101L215.029 353.833C213.903 354.311 213.598 354.974 213.821 355.661C214.065 356.413 214.75 356.612 215.59 356.339ZM219.367 353.816L220.207 353.543C220.439 354.256 221.119 354.528 221.985 354.247C222.94 353.936 223.367 353.347 223.152 352.684C222.987 352.175 222.637 351.965 221.853 352.023L220.709 352.099C219.553 352.179 218.848 351.789 218.575 350.948C218.223 349.866 218.904 348.884 220.228 348.454C221.527 348.031 222.599 348.471 223.01 349.605L222.157 349.882C221.9 349.178 221.266 348.919 220.439 349.188C219.573 349.469 219.209 349.996 219.424 350.658C219.577 351.129 220.016 351.353 220.745 351.299L221.889 351.223C223.045 351.142 223.69 351.482 223.98 352.373C224.34 353.481 223.634 354.513 222.233 354.968C220.845 355.42 219.739 354.963 219.367 353.816ZM227.387 353.124L226.521 353.406L224.757 347.981L223.522 348.383L223.282 347.644L224.517 347.243L223.884 345.294L224.75 345.013L225.383 346.961L226.618 346.56L226.859 347.298L225.623 347.7L227.387 353.124ZM229.532 342.346L235.733 340.33L236.006 341.171L235.106 350.615L234.164 350.921L235.077 341.473L229.805 343.187L229.532 342.346ZM245.715 347.335C243.92 347.919 242.416 346.887 241.816 345.041C241.211 343.182 241.813 341.437 243.647 340.841C244.665 340.51 245.625 340.691 246.348 341.442L244.953 337.15L245.832 336.865L248.849 346.148L248.085 346.396L247.586 345.164C247.464 346.26 246.747 347 245.715 347.335ZM245.607 346.484C246.957 346.045 247.416 344.769 246.952 343.343C246.493 341.93 245.368 341.155 244.018 341.594C242.681 342.028 242.239 343.312 242.699 344.726C243.162 346.152 244.27 346.918 245.607 346.484ZM252.502 345.129C251.191 345.556 250.174 345.07 249.822 343.987C249.454 342.854 250.088 341.859 251.49 341.277L253.473 340.449L253.407 340.245C253.014 339.036 252.164 338.89 251.26 339.183C250.19 339.531 249.711 340.222 249.98 341.05L249.177 341.31C248.772 340.062 249.53 338.929 251.045 338.437C252.471 337.973 253.747 338.347 254.277 339.977L255.573 343.962L254.834 344.202L254.368 343.157C254.238 344.058 253.547 344.79 252.502 345.129ZM252.474 344.35C253.773 343.928 254.231 342.779 253.796 341.442L253.688 341.111L251.913 341.843C250.787 342.322 250.482 342.984 250.705 343.672C250.949 344.423 251.634 344.623 252.474 344.35ZM257.448 346.323L257.213 345.598L257.887 345.378C258.422 345.204 258.945 344.992 258.981 344.065L259.013 343.252L254.393 337.531L255.323 337.229L259.056 341.957L259.258 335.95L260.162 335.656L259.798 344.152C259.756 345.235 259.286 345.825 258.407 346.11C258.038 346.23 257.749 346.296 257.448 346.323ZM262.071 339.935L262.911 339.662C263.143 340.375 263.823 340.647 264.689 340.366C265.644 340.055 266.071 339.466 265.856 338.803C265.691 338.294 265.341 338.084 264.557 338.142L263.413 338.218C262.257 338.298 261.552 337.907 261.279 337.067C260.927 335.985 261.608 335.003 262.932 334.573C264.231 334.15 265.303 334.59 265.714 335.724L264.861 336.001C264.604 335.296 263.97 335.038 263.143 335.307C262.277 335.588 261.913 336.115 262.128 336.777C262.281 337.248 262.72 337.472 263.449 337.418L264.593 337.342C265.749 337.261 266.394 337.601 266.684 338.492C267.044 339.6 266.338 340.632 264.937 341.087C263.549 341.539 262.443 341.081 262.071 339.935Z" fill="#FF9F1C"/>
</g>
<g filter="url(#filter13_d_778_70)">
<mask id="path-12-inside-2_778_70" fill="white">
<path d="M172.803 629.42C171.147 620.344 177.162 611.644 186.238 609.988L350.575 580.002C359.651 578.346 368.351 584.361 370.007 593.437L388.405 694.263C390.061 703.339 384.046 712.039 374.97 713.695L210.633 743.681C201.557 745.337 192.857 739.322 191.201 730.246L172.803 629.42Z"/>
</mask>
<path d="M172.803 629.42C171.147 620.344 177.162 611.644 186.238 609.988L350.575 580.002C359.651 578.346 368.351 584.361 370.007 593.437L388.405 694.263C390.061 703.339 384.046 712.039 374.97 713.695L210.633 743.681C201.557 745.337 192.857 739.322 191.201 730.246L172.803 629.42Z" fill="#FBBF7D" fill-opacity="0.1" shape-rendering="crispEdges"/>
<path d="M186.238 609.988L186.338 610.536L350.675 580.55L350.575 580.002L350.475 579.454L186.138 609.44L186.238 609.988ZM370.007 593.437L369.46 593.537L387.857 694.363L388.405 694.263L388.953 694.163L370.555 593.337L370.007 593.437ZM374.97 713.695L374.87 713.147L210.533 743.133L210.633 743.681L210.733 744.229L375.07 714.243L374.97 713.695ZM191.201 730.246L191.749 730.146L173.351 629.321L172.803 629.42L172.256 629.52L190.653 730.346L191.201 730.246ZM210.633 743.681L210.533 743.133C201.76 744.734 193.35 738.92 191.749 730.146L191.201 730.246L190.653 730.346C192.364 739.725 201.355 745.94 210.733 744.229L210.633 743.681ZM388.405 694.263L387.857 694.363C389.458 703.136 383.644 711.546 374.87 713.147L374.97 713.695L375.07 714.243C384.449 712.531 390.664 703.541 388.953 694.163L388.405 694.263ZM350.575 580.002L350.675 580.55C359.449 578.949 367.859 584.763 369.46 593.537L370.007 593.437L370.555 593.337C368.844 583.958 359.854 577.743 350.475 579.454L350.575 580.002ZM186.238 609.988L186.138 609.44C176.76 611.152 170.544 620.142 172.256 629.52L172.803 629.42L173.351 629.321C171.75 620.547 177.565 612.137 186.338 610.536L186.238 609.988Z" fill="#FBBF7D" fill-opacity="0.1" mask="url(#path-12-inside-2_778_70)"/>
<path d="M192.779 644.783L191.951 644.935L190.448 636.698L193.52 636.138C195.188 635.833 196.368 636.569 196.634 638.03C196.851 639.215 196.381 640.156 195.375 640.637L197.783 643.87L196.863 644.038L194.56 640.928L192.156 641.367L192.779 644.783ZM191.413 637.295L192.019 640.619L194.286 640.206C195.425 639.998 195.978 639.255 195.787 638.208C195.592 637.138 194.783 636.68 193.656 636.885L191.413 637.295ZM200.953 643.292L200.113 643.445L201.635 634.657L202.659 634.47L207.222 642.148L206.359 642.306L205.155 640.267L201.359 640.959L200.953 643.292ZM202.25 635.745L201.48 640.189L204.758 639.59L202.457 635.707C202.402 635.599 202.319 635.471 202.293 635.393C202.294 635.464 202.275 635.622 202.25 635.745ZM207.031 634.457L206.892 633.698L212.793 632.621L212.932 633.38L210.39 633.844L211.754 641.321L210.926 641.472L209.561 633.995L207.031 634.457ZM216.405 631.962L217.908 640.198L217.08 640.349L215.577 632.113L216.405 631.962ZM222.382 639.382L221.554 639.533L220.051 631.296L220.891 631.143L226.674 637.172L225.423 630.316L226.24 630.167L227.743 638.404L226.926 638.553L221.131 632.526L222.382 639.382ZM233.464 629.515C231.566 629.861 230.626 631.483 231.01 633.588C231.4 635.728 232.903 636.797 234.755 636.459C236.135 636.207 237.359 635.294 236.998 633.315L236.921 632.89L233.941 633.433L233.807 632.697L237.569 632.011L238.383 636.474L237.727 636.594L237.408 635.297C237.119 636.194 236.197 637.004 234.863 637.247C232.528 637.673 230.611 636.288 230.147 633.745C229.687 631.226 230.975 629.161 233.333 628.73C235.07 628.413 236.596 629.157 237.191 630.594L236.294 630.757C235.743 629.693 234.672 629.294 233.464 629.515Z" fill="#99A1AF"/>
<path d="M324.899 616.101C323.242 607.025 329.258 598.325 338.334 596.669C347.41 595.013 356.11 601.028 357.766 610.104C359.422 619.18 353.407 627.88 344.331 629.536C335.255 631.193 326.555 625.178 324.899 616.101Z" fill="#F0B100" fill-opacity="0.2"/>
<g clip-path="url(#clip1_778_70)">
<path d="M339.794 606.517C339.813 606.451 339.85 606.391 339.901 606.345C339.952 606.299 340.015 606.268 340.083 606.256C340.15 606.243 340.22 606.25 340.284 606.275C340.348 606.3 340.404 606.343 340.445 606.398L342.611 609.313C342.754 609.505 342.941 609.66 343.157 609.763C343.372 609.867 343.609 609.917 343.848 609.908L347.48 609.781C347.549 609.778 347.617 609.795 347.677 609.829C347.737 609.863 347.786 609.913 347.818 609.974C347.851 610.035 347.866 610.103 347.862 610.172C347.858 610.241 347.834 610.307 347.794 610.363L345.691 613.321C345.552 613.516 345.463 613.742 345.431 613.979C345.399 614.216 345.425 614.458 345.507 614.683L346.753 618.092C346.777 618.157 346.783 618.227 346.769 618.295C346.755 618.363 346.722 618.425 346.674 618.475C346.626 618.525 346.566 618.561 346.499 618.578C346.432 618.595 346.361 618.593 346.295 618.572L342.83 617.487C342.601 617.415 342.359 617.4 342.124 617.443C341.889 617.486 341.667 617.586 341.479 617.733L338.621 619.972C338.567 620.015 338.501 620.042 338.433 620.049C338.364 620.057 338.295 620.045 338.233 620.015C338.17 619.985 338.118 619.938 338.081 619.88C338.044 619.822 338.024 619.754 338.024 619.685L337.985 616.056C337.982 615.817 337.921 615.581 337.808 615.37C337.694 615.16 337.53 614.98 337.332 614.846L334.319 612.822C334.261 612.784 334.216 612.73 334.187 612.667C334.159 612.605 334.149 612.535 334.158 612.466C334.167 612.398 334.195 612.333 334.239 612.28C334.283 612.227 334.342 612.187 334.407 612.165L337.849 611.003C338.076 610.927 338.281 610.796 338.446 610.623C338.612 610.45 338.732 610.239 338.798 610.009L339.794 606.517Z" fill="#FFD700" stroke="#FFD700" stroke-width="1.39208" stroke-linecap="round" stroke-linejoin="round"/>
</g>
<path d="M222.372 690.011L219.059 690.615L220.153 696.61L217.392 697.114L216.298 691.119L201.468 693.825L201.008 691.301L211.213 669.061L215 668.371L218.598 688.091L221.911 687.486L222.372 690.011ZM204.084 690.739L215.837 688.595L212.771 671.793L204.084 690.739ZM229.918 695.277C228.577 695.521 227.232 694.626 226.994 693.324C226.749 691.983 227.685 690.631 229.026 690.386C230.367 690.141 231.719 691.076 231.964 692.417C232.201 693.719 231.259 695.032 229.918 695.277ZM250.555 681.2L245.236 692.033L241.923 692.638L247.539 681.424C246.367 682.372 245.188 682.832 243.847 683.076C237.97 684.149 233.281 680.562 232.273 675.04C231.223 669.282 234.823 664.224 240.463 663.194C246.143 662.158 251.398 665.723 252.435 671.402C253.032 674.676 252.582 677.122 250.555 681.2ZM249.588 671.881C248.803 667.582 245.237 665.013 240.938 665.798C236.758 666.56 234.329 670.223 235.113 674.522C235.89 678.782 239.449 681.311 243.63 680.548C247.929 679.764 250.365 676.141 249.588 671.881ZM260.324 689.28L257.642 689.769L263.493 659.522L266.254 659.018L260.324 689.28ZM281.723 685.865C276.043 686.901 271.767 684.013 270.752 678.452L273.592 677.934C274.333 681.996 277.264 683.988 281.287 683.254C285.547 682.477 287.789 679.134 287.026 674.953C286.307 671.009 283.175 668.361 278.718 669.174C276.115 669.649 273.964 671.264 272.735 673.241L270.358 672.941L271.159 658.123L284.805 655.633L285.28 658.236L273.685 660.352L273.174 669.615C274.522 668.065 276.443 666.981 278.652 666.578C284.528 665.505 288.927 669.063 289.891 674.349C290.928 680.028 287.639 684.785 281.723 685.865Z" fill="white"/>
<g clip-path="url(#clip2_778_70)">
<path d="M216.493 716.858L212.687 722.364L209.448 720.124L206.537 724.335" stroke="#FFD700" stroke-width="1.11367" stroke-linecap="round" stroke-linejoin="round"/>
<path d="M213.207 717.457L216.493 716.858L217.093 720.144" stroke="#FFD700" stroke-width="1.11367" stroke-linecap="round" stroke-linejoin="round"/>
</g>
<path d="M226.874 718.51L225.323 721.669L224.357 721.845L225.994 718.575C225.653 718.851 225.309 718.985 224.918 719.057C223.203 719.369 221.836 718.323 221.542 716.713C221.235 715.033 222.286 713.558 223.931 713.258C225.587 712.956 227.12 713.995 227.422 715.652C227.597 716.607 227.465 717.32 226.874 718.51ZM226.592 715.791C226.363 714.538 225.323 713.788 224.069 714.017C222.85 714.24 222.141 715.308 222.37 716.562C222.597 717.804 223.635 718.542 224.854 718.319C226.108 718.091 226.819 717.034 226.592 715.791ZM229.074 718.667C228.889 717.655 229.352 716.738 230.269 716.226C229.379 716.044 228.784 715.451 228.629 714.6C228.398 713.334 229.322 712.274 230.898 711.987C232.462 711.701 233.666 712.373 233.899 713.65C234.057 714.513 233.721 715.275 232.96 715.735C233.97 715.86 234.754 716.573 234.943 717.608C235.199 719.011 234.19 720.194 232.442 720.513C230.693 720.832 229.332 720.082 229.074 718.667ZM229.415 714.48C229.581 715.389 230.428 715.864 231.556 715.658C232.672 715.455 233.289 714.736 233.123 713.827C232.962 712.941 232.136 712.521 231.02 712.725C229.893 712.931 229.258 713.617 229.415 714.48ZM229.878 718.449C230.065 719.473 231.04 719.996 232.317 719.763C233.57 719.534 234.298 718.7 234.111 717.676C233.926 716.664 232.978 716.159 231.679 716.397C230.402 716.63 229.693 717.436 229.878 718.449ZM239.371 712.544C239.587 713.729 238.903 714.734 237.73 714.948C236.556 715.162 235.55 714.466 235.333 713.281C235.117 712.096 235.811 711.078 236.984 710.864C238.158 710.65 239.155 711.359 239.371 712.544ZM243.203 709.896L238.448 719.274L237.619 719.425L242.363 710.049L243.203 709.896ZM238.681 712.67C238.532 711.854 237.888 711.389 237.106 711.531C236.312 711.676 235.875 712.338 236.024 713.155C236.171 713.96 236.828 714.435 237.61 714.292C238.381 714.151 238.828 713.476 238.681 712.67ZM245.5 716.038C245.716 717.223 245.032 718.227 243.859 718.441C242.685 718.656 241.679 717.96 241.463 716.775C241.246 715.59 241.94 714.572 243.114 714.358C244.287 714.144 245.284 714.853 245.5 716.038ZM244.81 716.164C244.661 715.347 244.018 714.882 243.235 715.025C242.442 715.17 242.004 715.832 242.153 716.649C242.3 717.454 242.955 717.917 243.737 717.774C244.508 717.634 244.957 716.969 244.81 716.164ZM249.66 715.612L250.42 715.473C250.537 716.117 251.094 716.432 251.876 716.289C252.739 716.132 253.178 715.671 253.069 715.073C252.985 714.613 252.706 714.39 252.021 714.349L251.022 714.282C250.012 714.216 249.448 713.796 249.309 713.037C249.131 712.059 249.834 711.289 251.031 711.071C252.204 710.856 253.081 711.362 253.304 712.391L252.534 712.532C252.393 711.892 251.875 711.594 251.127 711.73C250.345 711.873 249.969 712.287 250.078 712.885C250.156 713.31 250.509 713.555 251.146 713.593L252.145 713.661C253.156 713.726 253.675 714.095 253.822 714.9C254.004 715.901 253.273 716.712 252.007 716.943C250.753 717.171 249.849 716.647 249.66 715.612ZM257.03 716.026C255.845 716.242 255.021 715.703 254.843 714.725C254.656 713.702 255.321 712.915 256.602 712.574L258.415 712.089L258.381 711.905C258.182 710.812 257.463 710.586 256.647 710.735C255.68 710.912 255.185 711.454 255.321 712.201L254.597 712.334C254.391 711.206 255.179 710.314 256.548 710.064C257.836 709.829 258.897 710.301 259.166 711.773L259.823 715.374L259.155 715.496L258.874 714.537C258.656 715.301 257.973 715.854 257.03 716.026ZM257.096 715.348C258.269 715.134 258.799 714.194 258.579 712.986L258.524 712.687L256.902 713.114C255.872 713.397 255.53 713.934 255.644 714.556C255.768 715.234 256.337 715.487 257.096 715.348ZM262.591 714.869L261.809 715.012L260.915 710.111L259.799 710.315L259.677 709.647L260.793 709.444L260.472 707.684L261.254 707.541L261.575 709.301L262.691 709.097L262.813 709.765L261.697 709.968L262.591 714.869ZM263.837 707.307C263.515 707.366 263.202 707.15 263.143 706.828C263.084 706.506 263.298 706.181 263.621 706.123C263.943 706.064 264.269 706.29 264.328 706.612C264.387 706.934 264.159 707.249 263.837 707.307ZM264.741 714.477L263.725 708.909L264.519 708.764L265.534 714.332L264.741 714.477ZM266.433 712.551L267.192 712.413C267.309 713.057 267.866 713.371 268.648 713.229C269.511 713.071 269.95 712.611 269.841 712.013C269.757 711.552 269.479 711.33 268.793 711.288L267.795 711.221C266.784 711.156 266.22 710.736 266.082 709.976C265.903 708.999 266.607 708.228 267.803 708.01C268.976 707.796 269.853 708.302 270.077 709.331L269.306 709.471C269.165 708.831 268.647 708.534 267.9 708.67C267.117 708.813 266.741 709.226 266.85 709.824C266.928 710.25 267.282 710.494 267.919 710.533L268.918 710.6C269.928 710.665 270.447 711.034 270.594 711.84C270.776 712.84 270.045 713.651 268.779 713.882C267.526 714.111 266.622 713.587 266.433 712.551ZM270.54 707.665L271.392 707.51L271.194 706.429C270.966 705.175 271.568 704.566 272.419 704.41C272.615 704.375 272.847 704.344 273.037 704.345L273.161 705.024L272.689 705.11C271.988 705.238 271.869 705.628 271.988 706.284L272.186 707.365L273.497 707.126L273.619 707.793L272.307 708.032L273.201 712.933L272.408 713.078L271.514 708.177L270.662 708.332L270.54 707.665ZM277.015 712.38C275.83 712.596 275.006 712.057 274.828 711.079C274.641 710.055 275.306 709.268 276.587 708.927L278.4 708.442L278.367 708.258C278.167 707.165 277.448 706.94 276.632 707.089C275.665 707.265 275.17 707.807 275.306 708.555L274.582 708.687C274.376 707.56 275.164 706.667 276.533 706.417C277.821 706.182 278.882 706.654 279.151 708.127L279.808 711.727L279.141 711.849L278.859 710.89C278.642 711.655 277.958 712.207 277.015 712.38ZM277.081 711.702C278.255 711.488 278.784 710.547 278.564 709.339L278.509 709.04L276.887 709.467C275.857 709.75 275.516 710.288 275.629 710.909C275.753 711.588 276.322 711.84 277.081 711.702ZM280.504 708.736C280.185 706.987 281.036 705.596 282.658 705.3C283.947 705.064 285.026 705.64 285.455 706.751L284.661 706.895C284.313 706.162 283.568 705.859 282.798 705.999C281.67 706.205 281.034 707.212 281.284 708.581C281.525 709.904 282.423 710.656 283.55 710.45C284.379 710.299 284.962 709.717 285.05 708.964L285.856 708.817C285.799 710.004 284.946 710.932 283.681 711.163C282.105 711.451 280.823 710.484 280.504 708.736ZM288.654 710.113L287.872 710.256L286.978 705.355L285.862 705.559L285.74 704.892L286.856 704.688L286.535 702.928L287.317 702.785L287.638 704.545L288.754 704.342L288.876 705.009L287.76 705.213L288.654 710.113ZM289.9 702.552C289.577 702.611 289.265 702.394 289.206 702.072C289.147 701.75 289.361 701.426 289.683 701.367C290.005 701.308 290.332 701.534 290.391 701.856C290.449 702.178 290.222 702.493 289.9 702.552ZM290.804 709.721L289.788 704.153L290.581 704.008L291.597 709.576L290.804 709.721ZM292.353 706.562C292.043 704.859 293.015 703.41 294.648 703.112C296.282 702.814 297.703 703.826 298.013 705.529C298.322 707.22 297.35 708.669 295.716 708.967C294.083 709.265 292.662 708.253 292.353 706.562ZM293.157 706.403C293.396 707.715 294.39 708.472 295.586 708.254C296.771 708.038 297.445 706.976 297.206 705.664C296.971 704.376 295.963 703.609 294.778 703.825C293.582 704.043 292.921 705.115 293.157 706.403ZM300.584 707.936L299.791 708.081L298.775 702.513L299.465 702.387L299.756 703.333C299.994 702.552 300.657 702.015 301.462 701.868C302.992 701.589 303.791 702.383 304.047 703.786L304.668 707.191L303.874 707.336L303.285 704.103C303.047 702.803 302.377 702.45 301.456 702.618C300.318 702.826 299.825 703.772 300.053 705.026L300.584 707.936ZM310.994 706.037L307.7 700.885L308.551 700.729L310.644 704.056C310.867 704.431 311.086 704.784 311.257 705.133C311.291 704.734 311.373 704.339 311.461 703.907L312.267 700.051L313.084 699.902L311.787 705.892L310.994 706.037ZM314.244 703.827L315.004 703.689C315.121 704.333 315.678 704.647 316.46 704.504C317.323 704.347 317.762 703.887 317.653 703.288C317.569 702.828 317.29 702.606 316.605 702.564L315.606 702.497C314.596 702.432 314.032 702.012 313.893 701.252C313.715 700.275 314.418 699.504 315.615 699.286C316.788 699.072 317.665 699.578 317.888 700.607L317.118 700.747C316.977 700.107 316.459 699.809 315.711 699.946C314.929 700.089 314.553 700.502 314.662 701.1C314.74 701.526 315.093 701.77 315.73 701.809L316.729 701.876C317.74 701.941 318.259 702.31 318.406 703.115C318.588 704.116 317.857 704.927 316.591 705.158C315.337 705.387 314.433 704.862 314.244 703.827ZM324.008 703.662L323.214 703.807L321.684 695.421L322.478 695.276L324.008 703.662ZM327.32 703.2C326.135 703.417 325.312 702.877 325.134 701.9C324.947 700.876 325.611 700.089 326.893 699.748L328.706 699.263L328.672 699.079C328.473 697.986 327.754 697.76 326.937 697.909C325.971 698.086 325.476 698.628 325.612 699.376L324.887 699.508C324.682 698.38 325.47 697.488 326.839 697.238C328.127 697.003 329.188 697.475 329.457 698.947L330.114 702.548L329.446 702.67L329.164 701.711C328.947 702.476 328.264 703.028 327.32 703.2ZM327.387 702.523C328.56 702.308 329.09 701.368 328.87 700.16L328.815 699.861L327.193 700.288C326.163 700.571 325.821 701.108 325.935 701.73C326.059 702.408 326.628 702.661 327.387 702.523ZM330.949 700.779L331.708 700.64C331.826 701.285 332.383 701.599 333.165 701.456C334.028 701.299 334.467 700.838 334.357 700.24C334.274 699.78 333.995 699.558 333.31 699.516L332.311 699.449C331.301 699.384 330.737 698.963 330.598 698.204C330.42 697.226 331.123 696.456 332.32 696.238C333.493 696.024 334.37 696.529 334.593 697.558L333.822 697.699C333.682 697.059 333.164 696.761 332.416 696.898C331.634 697.04 331.258 697.454 331.367 698.052C331.445 698.478 331.798 698.722 332.435 698.76L333.434 698.828C334.444 698.893 334.963 699.262 335.11 700.067C335.293 701.068 334.561 701.879 333.296 702.11C332.042 702.339 331.138 701.814 330.949 700.779ZM337.971 701.114L337.189 701.257L336.295 696.356L335.179 696.56L335.057 695.893L336.173 695.689L335.852 693.929L336.634 693.786L336.955 695.547L338.071 695.343L338.193 696.01L337.077 696.214L337.971 701.114ZM341.083 692.036L346.686 691.013L346.824 691.773L344.945 699.842L344.093 699.997L345.984 691.926L341.222 692.795L341.083 692.036ZM354.509 698.239C352.887 698.535 351.706 697.467 351.401 695.799C351.095 694.119 351.819 692.68 353.475 692.378C354.395 692.21 355.205 692.478 355.743 693.212L355.036 689.335L355.83 689.19L357.36 697.576L356.67 697.702L356.381 696.578C356.148 697.512 355.441 698.069 354.509 698.239ZM354.515 697.489C355.734 697.267 356.28 696.216 356.044 694.928C355.811 693.651 354.928 692.849 353.709 693.072C352.501 693.292 351.969 694.352 352.202 695.629C352.437 696.917 353.307 697.71 354.515 697.489ZM360.64 697.12C359.455 697.337 358.632 696.798 358.454 695.82C358.267 694.796 358.931 694.009 360.212 693.668L362.026 693.183L361.992 692.999C361.793 691.906 361.074 691.68 360.257 691.83C359.291 692.006 358.796 692.548 358.932 693.296L358.207 693.428C358.002 692.301 358.79 691.408 360.159 691.158C361.447 690.923 362.508 691.395 362.776 692.868L363.433 696.468L362.766 696.59L362.484 695.631C362.267 696.396 361.584 696.948 360.64 697.12ZM360.707 696.443C361.88 696.229 362.41 695.288 362.189 694.08L362.135 693.781L360.513 694.208C359.483 694.491 359.141 695.029 359.255 695.65C359.378 696.328 359.948 696.581 360.707 696.443ZM364.782 698.73L364.662 698.074L365.272 697.963C365.755 697.875 366.232 697.752 366.372 696.954L366.494 696.254L363.162 690.765L364.002 690.611L366.682 695.138L367.556 689.963L368.373 689.814L367.068 697.124C366.906 698.057 366.43 698.513 365.636 698.657C365.303 698.718 365.045 698.742 364.782 698.73ZM369.527 693.74L370.286 693.601C370.403 694.245 370.96 694.56 371.742 694.417C372.605 694.26 373.044 693.799 372.935 693.201C372.851 692.741 372.573 692.518 371.887 692.477L370.889 692.41C369.878 692.344 369.314 691.924 369.176 691.165C368.997 690.187 369.701 689.417 370.897 689.199C372.07 688.985 372.947 689.49 373.171 690.519L372.4 690.66C372.259 690.02 371.741 689.722 370.994 689.859C370.211 690.001 369.835 690.415 369.944 691.013C370.022 691.438 370.376 691.683 371.013 691.721L372.012 691.789C373.022 691.854 373.541 692.223 373.688 693.028C373.87 694.029 373.139 694.84 371.873 695.071C370.62 695.3 369.716 694.775 369.527 693.74Z" fill="#FFD700"/>
</g>
<g filter="url(#filter14_d_778_70)">
<mask id="path-21-inside-3_778_70" fill="white">
<path d="M1145.78 284.317C1147.65 274.753 1156.91 268.51 1166.47 270.372L1353.54 306.797C1363.11 308.659 1369.35 317.922 1367.49 327.486L1336.08 488.813C1334.22 498.377 1324.95 504.62 1315.39 502.758L1128.32 466.333C1118.75 464.471 1112.51 455.208 1114.37 445.644L1145.78 284.317Z"/>
</mask>
<path d="M1145.78 284.317C1147.65 274.753 1156.91 268.51 1166.47 270.372L1353.54 306.797C1363.11 308.659 1369.35 317.922 1367.49 327.486L1336.08 488.813C1334.22 498.377 1324.95 504.62 1315.39 502.758L1128.32 466.333C1118.75 464.471 1112.51 455.208 1114.37 445.644L1145.78 284.317Z" fill="#FBBF7D" fill-opacity="0.1" shape-rendering="crispEdges"/>
<path d="M1166.47 270.372L1166.36 270.949L1353.43 307.374L1353.54 306.797L1353.66 306.22L1166.59 269.795L1166.47 270.372ZM1367.49 327.486L1366.91 327.374L1335.5 488.7L1336.08 488.813L1336.66 488.925L1368.07 327.599L1367.49 327.486ZM1315.39 502.758L1315.5 502.181L1128.43 465.756L1128.32 466.333L1128.2 466.91L1315.28 503.335L1315.39 502.758ZM1114.37 445.644L1114.95 445.756L1146.36 284.43L1145.78 284.317L1145.21 284.205L1113.79 445.531L1114.37 445.644ZM1128.32 466.333L1128.43 465.756C1119.18 463.956 1113.15 455.002 1114.95 445.756L1114.37 445.644L1113.79 445.531C1111.87 455.414 1118.32 464.986 1128.2 466.91L1128.32 466.333ZM1336.08 488.813L1335.5 488.7C1333.7 497.946 1324.75 503.981 1315.5 502.181L1315.39 502.758L1315.28 503.335C1325.16 505.26 1334.73 498.808 1336.66 488.925L1336.08 488.813ZM1353.54 306.797L1353.43 307.374C1362.68 309.174 1368.71 318.129 1366.91 327.374L1367.49 327.486L1368.07 327.599C1369.99 317.716 1363.54 308.144 1353.66 306.22L1353.54 306.797ZM1166.47 270.372L1166.59 269.795C1156.7 267.87 1147.13 274.322 1145.21 284.205L1145.78 284.317L1146.36 284.43C1148.16 275.184 1157.12 269.149 1166.36 270.949L1166.47 270.372Z" fill="#FBBF7D" fill-opacity="0.1" mask="url(#path-21-inside-3_778_70)"/>
<path d="M1158.58 307.312L1157.69 307.14L1162.57 299.081L1163.65 299.291L1165.18 308.598L1164.28 308.421L1163.88 305.953L1159.87 305.174L1158.58 307.312ZM1162.76 300.388L1160.29 304.462L1163.75 305.135L1162.98 300.43C1162.96 300.302 1162.93 300.145 1162.93 300.057C1162.91 300.128 1162.83 300.276 1162.76 300.388ZM1171.29 309.926C1168.87 309.454 1167.57 307.327 1168.09 304.66C1168.61 301.993 1170.64 300.5 1173.09 300.977C1174.95 301.341 1176.2 302.754 1176.22 304.543L1175.28 304.362C1175.16 303.042 1174.24 302.071 1172.89 301.807C1170.98 301.436 1169.43 302.643 1169 304.837C1168.58 307.019 1169.57 308.721 1171.47 309.092C1172.84 309.359 1174.07 308.832 1174.68 307.741L1175.61 307.923C1174.89 309.481 1173.16 310.29 1171.29 309.926ZM1178.48 303.009L1178.64 302.209L1184.86 303.42L1184.7 304.22L1182.02 303.698L1180.49 311.578L1179.61 311.408L1181.15 303.529L1178.48 303.009ZM1188.66 304.161L1186.97 312.841L1186.1 312.671L1187.79 303.991L1188.66 304.161ZM1193.2 314.054L1191.57 304.727L1192.5 304.909L1193.64 311.397C1193.73 311.905 1193.81 312.411 1193.89 313.055C1194.19 312.46 1194.53 311.896 1194.73 311.595L1198.2 306.019L1199.1 306.193L1194.11 314.231L1193.2 314.054ZM1205.51 316.451L1200.31 315.438L1202 306.759L1207.19 307.769L1207.03 308.569L1202.72 307.729L1202.11 310.856L1206.03 311.618L1205.87 312.406L1201.96 311.644L1201.34 314.808L1205.67 315.651L1205.51 316.451ZM1217.62 318.947C1215.2 318.475 1213.9 316.348 1214.42 313.681C1214.94 311.014 1216.97 309.522 1219.42 309.998C1221.28 310.362 1222.53 311.775 1222.55 313.565L1221.61 313.383C1221.49 312.063 1220.58 311.092 1219.22 310.828C1217.31 310.457 1215.76 311.664 1215.33 313.858C1214.91 316.04 1215.9 317.743 1217.8 318.113C1219.17 318.38 1220.4 317.853 1221.01 316.762L1221.94 316.944C1221.22 318.503 1219.49 319.311 1217.62 318.947ZM1225.55 320.351L1224.67 320.181L1226.36 311.502L1229.6 312.132C1231.36 312.474 1232.24 313.652 1231.94 315.191C1231.69 316.44 1230.87 317.185 1229.69 317.271L1230.82 321.378L1229.85 321.189L1228.78 317.244L1226.25 316.751L1225.55 320.351ZM1227.08 312.46L1226.4 315.963L1228.79 316.428C1229.99 316.662 1230.82 316.144 1231.03 315.041C1231.25 313.914 1230.63 313.151 1229.45 312.92L1227.08 312.46ZM1239.36 323.041L1234.16 322.028L1235.85 313.349L1241.04 314.359L1240.88 315.159L1236.57 314.319L1235.96 317.446L1239.87 318.209L1239.72 318.997L1235.8 318.234L1235.19 321.398L1239.52 322.241L1239.36 323.041ZM1242.86 323.723L1241.98 323.551L1246.86 315.492L1247.94 315.702L1249.47 325.01L1248.56 324.833L1248.16 322.364L1244.16 321.585L1242.86 323.723ZM1247.04 316.799L1244.58 320.873L1248.03 321.546L1247.26 316.842C1247.25 316.713 1247.22 316.556 1247.22 316.469C1247.19 316.539 1247.11 316.687 1247.04 316.799ZM1252.24 317.371L1252.4 316.571L1258.62 317.782L1258.46 318.582L1255.78 318.06L1254.25 325.94L1253.37 325.77L1254.91 317.89L1252.24 317.371ZM1268.12 324.136C1267.61 326.767 1265.54 328.289 1263.11 327.817C1260.67 327.342 1259.34 325.157 1259.85 322.526C1260.36 319.896 1262.44 318.362 1264.86 318.834C1267.3 319.308 1268.63 321.494 1268.12 324.136ZM1267.22 323.962C1267.64 321.792 1266.61 320.055 1264.69 319.683C1262.78 319.31 1261.18 320.534 1260.76 322.703C1260.34 324.873 1261.36 326.607 1263.27 326.98C1265.19 327.353 1266.8 326.119 1267.22 323.962ZM1271.46 329.291L1270.59 329.121L1272.28 320.442L1275.51 321.072C1277.27 321.414 1278.15 322.592 1277.85 324.131C1277.61 325.38 1276.78 326.125 1275.61 326.211L1276.73 330.318L1275.76 330.129L1274.69 326.184L1272.16 325.691L1271.46 329.291ZM1273 321.4L1272.31 324.903L1274.7 325.368C1275.9 325.602 1276.73 325.084 1276.95 323.981C1277.17 322.853 1276.55 322.091 1275.36 321.86L1273 321.4ZM1280.8 324.442C1281.09 322.987 1282.44 322.256 1284.18 322.596C1285.75 322.901 1286.61 323.974 1286.46 325.455L1285.57 325.282C1285.67 324.282 1285.11 323.594 1284.02 323.382C1282.79 323.143 1281.87 323.618 1281.68 324.6C1281.53 325.364 1281.88 325.936 1282.75 326.343L1284.17 326.997C1285.46 327.589 1286.01 328.501 1285.78 329.677C1285.49 331.18 1284.14 331.912 1282.35 331.562C1280.66 331.234 1279.7 330.127 1279.86 328.688L1280.76 328.862C1280.63 329.781 1281.32 330.531 1282.5 330.762C1283.78 331.01 1284.71 330.55 1284.9 329.556C1285.05 328.78 1284.72 328.186 1283.83 327.786L1282.43 327.137C1281.14 326.545 1280.57 325.63 1280.8 324.442Z" fill="#99A1AF"/>
<path d="M1314.28 332.403C1316.21 322.852 1325.52 316.677 1335.07 318.609C1344.62 320.542 1350.79 329.85 1348.86 339.4C1346.93 348.951 1337.62 355.126 1328.07 353.194C1318.52 351.261 1312.35 341.953 1314.28 332.403Z" fill="#F0B100" fill-opacity="0.2"/>
<g clip-path="url(#clip3_778_70)">
<path d="M1333.14 342.969L1333.43 341.528C1333.59 340.764 1333.43 339.969 1333 339.319C1332.57 338.67 1331.9 338.218 1331.13 338.063L1326.81 337.188C1326.04 337.034 1325.25 337.189 1324.6 337.62C1323.95 338.051 1323.5 338.723 1323.34 339.487L1323.05 340.928" stroke="#FDC700" stroke-width="1.47023" stroke-linecap="round" stroke-linejoin="round"/>
<path d="M1329.55 334.744C1331.15 335.066 1332.7 334.036 1333.02 332.445C1333.34 330.853 1332.31 329.302 1330.72 328.98C1329.13 328.657 1327.58 329.687 1327.25 331.278C1326.93 332.87 1327.96 334.422 1329.55 334.744Z" stroke="#FDC700" stroke-width="1.47023" stroke-linecap="round" stroke-linejoin="round"/>
<path d="M1337.46 343.844L1337.75 342.403C1337.88 341.764 1337.8 341.101 1337.51 340.517C1337.22 339.933 1336.74 339.462 1336.16 339.177" stroke="#FDC700" stroke-width="1.47023" stroke-linecap="round" stroke-linejoin="round"/>
<path d="M1335.74 330.094C1336.33 330.378 1336.81 330.85 1337.1 331.435C1337.39 332.019 1337.48 332.684 1337.35 333.324C1337.22 333.964 1336.88 334.543 1336.38 334.969C1335.89 335.395 1335.27 335.644 1334.62 335.678" stroke="#FDC700" stroke-width="1.47023" stroke-linecap="round" stroke-linejoin="round"/>
</g>
<g clip-path="url(#clip4_778_70)">
<path opacity="0.8" d="M1149.64 383.738C1149.82 382.821 1150.37 382.015 1151.18 381.499C1151.98 380.982 1152.97 380.796 1153.93 380.983L1164.76 383.092C1165.72 383.279 1166.57 383.822 1167.12 384.602C1167.67 385.383 1167.88 386.336 1167.7 387.253L1161.56 418.808L1143.5 415.293L1149.64 383.738Z" fill="#EAB308"/>
<path opacity="0.8" d="M1175.36 372.593C1175.54 371.676 1176.09 370.87 1176.9 370.354C1177.7 369.837 1178.69 369.652 1179.65 369.838L1190.48 371.947C1191.44 372.134 1192.29 372.677 1192.84 373.457C1193.39 374.238 1193.6 375.192 1193.42 376.109L1184.25 423.225L1166.19 419.709L1175.36 372.593Z" fill="#EAB308"/>
<path opacity="0.8" d="M1196.53 384.79C1196.71 383.873 1197.27 383.068 1198.07 382.551C1198.87 382.034 1199.86 381.849 1200.82 382.035L1211.66 384.145C1212.61 384.331 1213.46 384.874 1214.01 385.655C1214.56 386.435 1214.77 387.389 1214.6 388.306L1206.94 427.641L1188.88 424.126L1196.53 384.79Z" fill="#EAB308"/>
<path opacity="0.8" d="M1222.25 373.645C1222.43 372.728 1222.98 371.923 1223.79 371.406C1224.59 370.889 1225.58 370.704 1226.54 370.89L1237.37 373C1238.33 373.186 1239.18 373.729 1239.73 374.51C1240.28 375.29 1240.49 376.244 1240.31 377.161L1229.63 432.058L1211.57 428.542L1222.25 373.645Z" fill="#EAB308"/>
<path opacity="0.8" d="M1242.67 389.733C1242.85 388.815 1243.4 388.01 1244.2 387.493C1245.01 386.977 1246 386.791 1246.95 386.978L1257.79 389.087C1258.75 389.273 1259.6 389.817 1260.15 390.597C1260.7 391.377 1260.91 392.331 1260.73 393.248L1252.31 436.474L1234.25 432.958L1242.67 389.733Z" fill="#EAB308"/>
<path opacity="0.8" d="M1268.39 378.588C1268.56 377.671 1269.12 376.865 1269.92 376.349C1270.72 375.832 1271.71 375.646 1272.67 375.833L1283.51 377.942C1284.47 378.129 1285.31 378.672 1285.86 379.452C1286.42 380.233 1286.63 381.186 1286.45 382.103L1275 440.89L1256.94 437.375L1268.39 378.588Z" fill="#EAB308"/>
<path opacity="0.8" d="M1289.56 390.785C1289.74 389.868 1290.29 389.062 1291.09 388.546C1291.9 388.029 1292.89 387.843 1293.85 388.03L1304.68 390.139C1305.64 390.326 1306.49 390.869 1307.04 391.649C1307.59 392.43 1307.8 393.383 1307.62 394.3L1297.69 445.307L1279.63 441.791L1289.56 390.785Z" fill="#EAB308"/>
<path opacity="0.8" d="M1314.52 383.53C1314.7 382.613 1315.25 381.808 1316.05 381.291C1316.86 380.774 1317.85 380.589 1318.81 380.775L1329.64 382.885C1330.6 383.071 1331.45 383.614 1332 384.395C1332.55 385.175 1332.76 386.129 1332.58 387.046L1320.38 449.723L1302.32 446.208L1314.52 383.53Z" fill="#EAB308"/>
</g>
<g clip-path="url(#clip5_778_70)">
<path d="M1141.42 440.575L1137.02 443.539L1135.28 440.952L1131.92 443.219" stroke="#FFD700" stroke-width="0.882136" stroke-linecap="round" stroke-linejoin="round"/>
<path d="M1138.82 440.069L1141.42 440.575L1140.92 443.173" stroke="#FFD700" stroke-width="0.882136" stroke-linecap="round" stroke-linejoin="round"/>
</g>
<path d="M1148.45 448.206L1147.53 448.028L1148.67 442.209C1148.41 442.376 1148.08 442.529 1147.68 442.669C1147.28 442.81 1146.93 442.905 1146.63 442.954L1146.8 442.072C1147.36 441.931 1147.86 441.727 1148.31 441.46C1148.76 441.193 1149.09 440.914 1149.31 440.623L1149.9 440.738L1148.45 448.206ZM1155.76 448.719L1155.59 449.597L1150.67 448.64C1150.71 448.419 1150.79 448.214 1150.9 448.026C1151.09 447.716 1151.36 447.425 1151.7 447.153C1152.04 446.883 1152.51 446.585 1153.11 446.26C1154.05 445.755 1154.7 445.337 1155.06 445.006C1155.42 444.673 1155.63 444.333 1155.7 443.988C1155.77 443.626 1155.7 443.297 1155.48 442.999C1155.28 442.699 1154.96 442.508 1154.55 442.427C1154.11 442.342 1153.73 442.405 1153.42 442.617C1153.1 442.83 1152.9 443.169 1152.8 443.635L1151.88 443.356C1152.08 442.669 1152.43 442.183 1152.92 441.899C1153.41 441.612 1154.01 441.538 1154.72 441.675C1155.43 441.814 1155.96 442.122 1156.29 442.599C1156.63 443.075 1156.75 443.606 1156.63 444.191C1156.57 444.489 1156.46 444.77 1156.28 445.034C1156.1 445.297 1155.84 445.561 1155.49 445.823C1155.15 446.087 1154.6 446.432 1153.83 446.859C1153.2 447.212 1152.78 447.456 1152.6 447.592C1152.41 447.724 1152.25 447.863 1152.11 448.009L1155.76 448.719ZM1157.09 449.888L1157.29 448.848L1158.33 449.05L1158.13 450.09L1157.09 449.888ZM1159.85 448.403L1160.82 448.508C1160.8 448.989 1160.9 449.373 1161.11 449.66C1161.32 449.944 1161.61 450.121 1161.98 450.192C1162.42 450.278 1162.82 450.185 1163.19 449.912C1163.56 449.64 1163.8 449.23 1163.9 448.682C1164.01 448.161 1163.94 447.722 1163.7 447.363C1163.47 447.006 1163.12 446.781 1162.64 446.689C1162.35 446.631 1162.07 446.647 1161.81 446.737C1161.55 446.822 1161.33 446.959 1161.15 447.145L1160.31 446.867L1161.78 443.187L1165.48 443.907L1165.31 444.779L1162.34 444.202L1161.55 446.123C1162.06 445.898 1162.55 445.834 1163.04 445.929C1163.69 446.056 1164.2 446.387 1164.56 446.924C1164.92 447.461 1165.03 448.083 1164.89 448.79C1164.76 449.463 1164.45 450.006 1163.96 450.42C1163.37 450.93 1162.66 451.104 1161.83 450.943C1161.16 450.812 1160.64 450.514 1160.28 450.052C1159.93 449.59 1159.79 449.041 1159.85 448.403ZM1166.52 445.859C1166.63 445.328 1166.85 444.902 1167.19 444.582C1167.53 444.262 1167.95 444.151 1168.46 444.25C1168.93 444.341 1169.28 444.584 1169.52 444.978C1169.76 445.369 1169.82 445.888 1169.69 446.534C1169.57 447.163 1169.32 447.618 1168.94 447.899C1168.57 448.177 1168.16 448.272 1167.7 448.184C1167.25 448.097 1166.91 447.856 1166.67 447.463C1166.44 447.07 1166.39 446.535 1166.52 445.859ZM1168.36 444.884C1168.13 444.84 1167.93 444.901 1167.74 445.068C1167.55 445.235 1167.4 445.581 1167.3 446.105C1167.21 446.582 1167.22 446.933 1167.33 447.159C1167.45 447.382 1167.62 447.515 1167.84 447.558C1168.07 447.603 1168.28 447.542 1168.47 447.374C1168.66 447.208 1168.8 446.864 1168.9 446.343C1169 445.863 1168.99 445.512 1168.87 445.289C1168.76 445.063 1168.59 444.928 1168.36 444.884ZM1166.96 452.095L1172.56 445.048L1173.3 445.192L1167.72 452.242L1166.96 452.095ZM1170.57 450.702C1170.68 450.167 1170.9 449.742 1171.24 449.425C1171.58 449.105 1172 448.995 1172.51 449.094C1172.98 449.185 1173.33 449.427 1173.57 449.821C1173.82 450.213 1173.87 450.732 1173.75 451.378C1173.63 452.007 1173.38 452.462 1173 452.743C1172.62 453.021 1172.21 453.116 1171.75 453.027C1171.3 452.939 1170.96 452.699 1170.72 452.305C1170.49 451.909 1170.44 451.375 1170.57 450.702ZM1172.42 449.728C1172.19 449.683 1171.98 449.744 1171.79 449.911C1171.6 450.078 1171.45 450.424 1171.35 450.948C1171.26 451.422 1171.27 451.771 1171.38 451.997C1171.5 452.223 1171.67 452.357 1171.89 452.401C1172.12 452.446 1172.33 452.385 1172.52 452.218C1172.71 452.052 1172.86 451.708 1172.96 451.187C1173.05 450.707 1173.04 450.355 1172.93 450.133C1172.81 449.907 1172.64 449.772 1172.42 449.728Z" fill="#FFD700"/>
<path d="M1180.64 454.474L1179.64 448.686L1180.61 448.874L1181.14 452.326C1181.19 452.699 1181.24 453.083 1181.27 453.479C1181.41 453.211 1181.59 452.891 1181.81 452.52L1183.65 449.466L1184.58 449.648L1181.5 454.639L1180.64 454.474ZM1184.29 453.514L1185.22 453.548C1185.2 453.92 1185.29 454.224 1185.48 454.462C1185.68 454.7 1185.98 454.86 1186.4 454.941C1186.82 455.022 1187.15 454.998 1187.38 454.869C1187.62 454.736 1187.76 454.554 1187.8 454.324C1187.84 454.118 1187.79 453.938 1187.63 453.785C1187.52 453.679 1187.23 453.516 1186.76 453.294C1186.12 452.994 1185.68 452.758 1185.45 452.586C1185.21 452.41 1185.05 452.201 1184.96 451.959C1184.87 451.713 1184.85 451.458 1184.9 451.195C1184.95 450.955 1185.04 450.743 1185.19 450.562C1185.34 450.377 1185.53 450.236 1185.74 450.137C1185.91 450.06 1186.12 450.009 1186.37 449.986C1186.63 449.96 1186.91 449.974 1187.19 450.028C1187.61 450.111 1187.97 450.244 1188.26 450.427C1188.56 450.612 1188.76 450.823 1188.87 451.063C1188.99 451.299 1189.04 451.596 1189.03 451.956L1188.11 451.904C1188.12 451.619 1188.05 451.379 1187.88 451.185C1187.72 450.992 1187.46 450.861 1187.11 450.792C1186.69 450.71 1186.37 450.721 1186.17 450.825C1185.96 450.929 1185.84 451.074 1185.8 451.26C1185.78 451.378 1185.8 451.492 1185.85 451.601C1185.91 451.714 1186.01 451.818 1186.16 451.913C1186.24 451.965 1186.49 452.095 1186.92 452.303C1187.53 452.602 1187.95 452.831 1188.18 452.992C1188.42 453.151 1188.59 453.349 1188.69 453.587C1188.8 453.825 1188.82 454.099 1188.76 454.411C1188.7 454.715 1188.56 454.985 1188.32 455.221C1188.1 455.454 1187.8 455.612 1187.44 455.696C1187.07 455.776 1186.68 455.775 1186.26 455.693C1185.56 455.556 1185.05 455.307 1184.74 454.944C1184.43 454.582 1184.28 454.105 1184.29 453.514ZM1192.41 456.764L1193.86 449.326L1194.77 449.504L1193.32 456.942L1192.41 456.764ZM1198.39 457.238C1197.99 457.459 1197.63 457.599 1197.29 457.656C1196.96 457.714 1196.61 457.708 1196.25 457.638C1195.66 457.523 1195.23 457.291 1194.97 456.941C1194.71 456.588 1194.62 456.187 1194.71 455.737C1194.76 455.473 1194.87 455.245 1195.03 455.051C1195.19 454.855 1195.38 454.71 1195.6 454.616C1195.82 454.522 1196.06 454.465 1196.32 454.445C1196.51 454.432 1196.79 454.439 1197.16 454.466C1197.91 454.521 1198.48 454.522 1198.85 454.468C1198.88 454.344 1198.89 454.264 1198.9 454.231C1198.97 453.859 1198.94 453.58 1198.79 453.394C1198.6 453.142 1198.27 452.971 1197.81 452.882C1197.39 452.798 1197.05 452.813 1196.82 452.925C1196.58 453.034 1196.38 453.27 1196.21 453.633L1195.34 453.338C1195.5 452.971 1195.69 452.689 1195.92 452.492C1196.15 452.292 1196.46 452.163 1196.83 452.106C1197.21 452.046 1197.63 452.061 1198.09 452.152C1198.55 452.241 1198.92 452.368 1199.18 452.532C1199.45 452.696 1199.63 452.875 1199.74 453.067C1199.84 453.255 1199.9 453.48 1199.9 453.741C1199.9 453.902 1199.86 454.186 1199.78 454.592L1199.55 455.81C1199.38 456.659 1199.29 457.2 1199.29 457.434C1199.29 457.665 1199.32 457.895 1199.4 458.124L1198.44 457.938C1198.38 457.73 1198.37 457.497 1198.39 457.238ZM1198.71 455.183C1198.35 455.254 1197.83 455.272 1197.15 455.238C1196.76 455.219 1196.49 455.228 1196.32 455.266C1196.15 455.303 1196.01 455.379 1195.9 455.495C1195.79 455.607 1195.72 455.743 1195.69 455.901C1195.64 456.145 1195.69 456.366 1195.84 456.564C1196 456.762 1196.25 456.896 1196.61 456.965C1196.96 457.034 1197.29 457.018 1197.59 456.92C1197.9 456.817 1198.14 456.645 1198.32 456.403C1198.46 456.216 1198.57 455.921 1198.64 455.518L1198.71 455.183ZM1200.48 456.665L1201.41 456.698C1201.39 457.07 1201.47 457.375 1201.66 457.612C1201.86 457.85 1202.17 458.01 1202.58 458.091C1203 458.173 1203.33 458.149 1203.57 458.019C1203.8 457.886 1203.94 457.705 1203.99 457.475C1204.03 457.268 1203.97 457.089 1203.81 456.935C1203.7 456.83 1203.41 456.666 1202.94 456.444C1202.3 456.145 1201.87 455.909 1201.63 455.736C1201.4 455.561 1201.23 455.352 1201.14 455.109C1201.05 454.864 1201.03 454.609 1201.08 454.345C1201.13 454.105 1201.23 453.894 1201.38 453.712C1201.53 453.527 1201.71 453.386 1201.93 453.288C1202.09 453.21 1202.3 453.16 1202.56 453.136C1202.82 453.11 1203.09 453.124 1203.37 453.179C1203.79 453.261 1204.15 453.394 1204.45 453.578C1204.74 453.762 1204.95 453.974 1205.06 454.213C1205.17 454.449 1205.22 454.747 1205.21 455.106L1204.3 455.054C1204.31 454.769 1204.23 454.53 1204.07 454.336C1203.9 454.143 1203.65 454.012 1203.29 453.942C1202.87 453.861 1202.56 453.872 1202.35 453.976C1202.15 454.079 1202.02 454.224 1201.99 454.41C1201.96 454.529 1201.98 454.643 1202.04 454.752C1202.09 454.864 1202.19 454.968 1202.34 455.063C1202.42 455.115 1202.68 455.245 1203.1 455.454C1203.71 455.752 1204.14 455.982 1204.37 456.143C1204.6 456.301 1204.77 456.499 1204.88 456.737C1204.98 456.975 1205.01 457.25 1204.94 457.561C1204.89 457.865 1204.74 458.135 1204.51 458.371C1204.28 458.604 1203.98 458.762 1203.62 458.846C1203.26 458.926 1202.86 458.925 1202.44 458.843C1201.74 458.707 1201.24 458.457 1200.92 458.095C1200.61 457.733 1200.47 457.256 1200.48 456.665ZM1207.88 458.927L1207.85 459.759C1207.58 459.763 1207.35 459.745 1207.14 459.706C1206.81 459.641 1206.57 459.539 1206.4 459.398C1206.24 459.258 1206.14 459.096 1206.1 458.912C1206.06 458.725 1206.09 458.358 1206.2 457.81L1206.8 454.71L1206.13 454.58L1206.27 453.869L1206.94 454L1207.2 452.665L1208.21 452.294L1207.85 454.176L1208.77 454.355L1208.63 455.066L1207.71 454.887L1207.1 458.037C1207.04 458.298 1207.03 458.468 1207.04 458.549C1207.06 458.63 1207.1 458.699 1207.17 458.757C1207.23 458.815 1207.33 458.858 1207.47 458.884C1207.57 458.904 1207.71 458.918 1207.88 458.927ZM1212.57 453.98L1212.74 453.102L1217.56 454.039L1217.42 454.75C1216.85 455.161 1216.25 455.74 1215.62 456.484C1214.99 457.229 1214.47 458.019 1214.04 458.852C1213.74 459.439 1213.49 460.098 1213.29 460.829L1212.35 460.646C1212.48 460.063 1212.73 459.378 1213.11 458.592C1213.49 457.807 1213.96 457.07 1214.52 456.381C1215.08 455.691 1215.65 455.126 1216.21 454.689L1212.57 453.98ZM1223.68 462.85L1223.81 462.17C1223.36 462.638 1222.81 462.808 1222.15 462.679C1221.72 462.595 1221.35 462.4 1221.03 462.093C1220.72 461.786 1220.5 461.402 1220.38 460.94C1220.27 460.476 1220.27 459.968 1220.38 459.417C1220.48 458.879 1220.66 458.409 1220.93 458.008C1221.19 457.603 1221.53 457.319 1221.93 457.155C1222.34 456.992 1222.76 456.953 1223.2 457.039C1223.53 457.102 1223.8 457.228 1224.03 457.416C1224.26 457.601 1224.43 457.819 1224.55 458.069L1225.06 455.401L1225.97 455.577L1224.53 463.015L1223.68 462.85ZM1221.31 459.599C1221.18 460.289 1221.23 460.834 1221.45 461.232C1221.67 461.63 1221.98 461.868 1222.38 461.945C1222.78 462.022 1223.15 461.926 1223.49 461.655C1223.83 461.382 1224.07 460.91 1224.2 460.24C1224.35 459.503 1224.31 458.934 1224.09 458.534C1223.87 458.134 1223.56 457.893 1223.14 457.812C1222.74 457.733 1222.36 457.833 1222.03 458.111C1221.69 458.389 1221.45 458.886 1221.31 459.599ZM1229.61 463.316C1229.22 463.537 1228.85 463.677 1228.51 463.734C1228.18 463.792 1227.83 463.786 1227.47 463.716C1226.88 463.601 1226.46 463.368 1226.19 463.019C1225.93 462.666 1225.85 462.265 1225.93 461.815C1225.98 461.551 1226.09 461.322 1226.25 461.129C1226.42 460.933 1226.61 460.788 1226.83 460.693C1227.05 460.6 1227.29 460.543 1227.54 460.522C1227.73 460.51 1228.01 460.517 1228.38 460.543C1229.14 460.599 1229.7 460.6 1230.07 460.546C1230.1 460.421 1230.12 460.342 1230.12 460.308C1230.2 459.936 1230.16 459.657 1230.02 459.472C1229.82 459.22 1229.5 459.049 1229.04 458.96C1228.61 458.876 1228.28 458.89 1228.04 459.002C1227.81 459.112 1227.61 459.348 1227.43 459.711L1226.56 459.415C1226.72 459.049 1226.91 458.767 1227.14 458.57C1227.38 458.369 1227.68 458.241 1228.06 458.184C1228.43 458.124 1228.85 458.139 1229.32 458.229C1229.78 458.319 1230.14 458.446 1230.41 458.61C1230.67 458.774 1230.86 458.952 1230.96 459.144C1231.06 459.333 1231.12 459.558 1231.12 459.819C1231.12 459.98 1231.08 460.264 1231.01 460.67L1230.77 461.887C1230.6 462.736 1230.52 463.278 1230.51 463.512C1230.51 463.743 1230.54 463.973 1230.62 464.201L1229.66 464.016C1229.61 463.808 1229.59 463.574 1229.61 463.316ZM1229.93 461.261C1229.57 461.332 1229.05 461.35 1228.37 461.316C1227.99 461.297 1227.71 461.306 1227.54 461.343C1227.37 461.381 1227.23 461.457 1227.12 461.573C1227.01 461.685 1226.94 461.82 1226.91 461.979C1226.86 462.223 1226.92 462.443 1227.07 462.641C1227.22 462.84 1227.48 462.974 1227.83 463.043C1228.18 463.111 1228.51 463.096 1228.81 462.997C1229.12 462.895 1229.36 462.723 1229.54 462.481C1229.68 462.293 1229.79 461.998 1229.87 461.596L1229.93 461.261ZM1231.31 466.489L1231.37 465.612C1231.56 465.705 1231.73 465.766 1231.88 465.794C1232.08 465.834 1232.25 465.832 1232.38 465.788C1232.52 465.744 1232.64 465.669 1232.74 465.562C1232.81 465.482 1232.95 465.273 1233.15 464.936C1233.18 464.889 1233.22 464.82 1233.27 464.729L1232.28 458.933L1233.27 459.124L1233.78 462.463C1233.85 462.887 1233.9 463.328 1233.93 463.787C1234.11 463.388 1234.32 463.003 1234.54 462.632L1236.3 459.716L1237.22 459.894L1234.1 464.974C1233.77 465.523 1233.52 465.898 1233.35 466.097C1233.13 466.367 1232.9 466.55 1232.66 466.648C1232.43 466.749 1232.16 466.772 1231.87 466.715C1231.7 466.681 1231.51 466.605 1231.31 466.489ZM1236.89 463.753L1237.82 463.787C1237.8 464.159 1237.89 464.464 1238.08 464.701C1238.28 464.939 1238.58 465.099 1239 465.18C1239.42 465.262 1239.75 465.238 1239.98 465.108C1240.22 464.975 1240.36 464.794 1240.41 464.564C1240.45 464.357 1240.39 464.177 1240.23 464.024C1240.12 463.919 1239.83 463.755 1239.36 463.533C1238.72 463.234 1238.28 462.998 1238.05 462.825C1237.82 462.65 1237.65 462.441 1237.56 462.198C1237.47 461.953 1237.45 461.698 1237.5 461.434C1237.55 461.194 1237.65 460.983 1237.79 460.801C1237.95 460.616 1238.13 460.475 1238.35 460.377C1238.51 460.299 1238.72 460.249 1238.98 460.225C1239.24 460.199 1239.51 460.213 1239.79 460.268C1240.21 460.35 1240.57 460.483 1240.86 460.667C1241.16 460.851 1241.37 461.063 1241.48 461.302C1241.59 461.538 1241.64 461.836 1241.63 462.195L1240.71 462.143C1240.73 461.858 1240.65 461.619 1240.48 461.425C1240.32 461.232 1240.06 461.101 1239.71 461.031C1239.29 460.95 1238.98 460.961 1238.77 461.065C1238.56 461.168 1238.44 461.313 1238.41 461.499C1238.38 461.618 1238.4 461.732 1238.46 461.841C1238.51 461.953 1238.61 462.057 1238.76 462.152C1238.84 462.204 1239.1 462.334 1239.52 462.543C1240.13 462.841 1240.55 463.071 1240.79 463.232C1241.02 463.39 1241.19 463.588 1241.3 463.826C1241.4 464.064 1241.42 464.339 1241.36 464.65C1241.3 464.954 1241.16 465.224 1240.93 465.46C1240.7 465.693 1240.4 465.851 1240.04 465.935C1239.68 466.015 1239.28 466.014 1238.86 465.932C1238.16 465.796 1237.65 465.546 1237.34 465.184C1237.03 464.822 1236.88 464.345 1236.89 463.753Z" fill="#6A7282"/>
</g>
</g>
<defs>
<filter id="filter0_f_778_70" x="-691.164" y="-287.402" width="1544.78" height="1389.3" filterUnits="userSpaceOnUse" color-interpolation-filters="sRGB">
<feFlood flood-opacity="0" result="BackgroundImageFix"/>
<feBlend mode="normal" in="SourceGraphic" in2="BackgroundImageFix" result="shape"/>
<feGaussianBlur stdDeviation="222" result="effect1_foregroundBlur_778_70"/>
</filter>
<filter id="filter1_d_778_70" x="293.613" y="-31.1" width="137.2" height="1088.2" filterUnits="userSpaceOnUse" color-interpolation-filters="sRGB">
<feFlood flood-opacity="0" result="BackgroundImageFix"/>
<feColorMatrix in="SourceAlpha" type="matrix" values="0 0 0 0 0 0 0 0 0 0 0 0 0 0 0 0 0 0 127 0" result="hardAlpha"/>
<feOffset dx="8" dy="1"/>
<feGaussianBlur stdDeviation="16.05"/>
<feComposite in2="hardAlpha" operator="out"/>
<feColorMatrix type="matrix" values="0 0 0 0 0 0 0 0 0 0 0 0 0 0 0 0 0 0 0.17 0"/>
<feBlend mode="normal" in2="BackgroundImageFix" result="effect1_dropShadow_778_70"/>
<feBlend mode="normal" in="BackgroundImageFix" in2="effect1_dropShadow_778_70" result="BackgroundImageFix"/>
<feBlend mode="normal" in="SourceGraphic" in2="BackgroundImageFix" result="shape"/>
</filter>
<filter id="filter2_d_778_70" x="216.613" y="-31.1" width="141.2" height="1088.2" filterUnits="userSpaceOnUse" color-interpolation-filters="sRGB">
<feFlood flood-opacity="0" result="BackgroundImageFix"/>
<feColorMatrix in="SourceAlpha" type="matrix" values="0 0 0 0 0 0 0 0 0 0 0 0 0 0 0 0 0 0 127 0" result="hardAlpha"/>
<feOffset dx="8" dy="1"/>
<feGaussianBlur stdDeviation="16.05"/>
<feComposite in2="hardAlpha" operator="out"/>
<feColorMatrix type="matrix" values="0 0 0 0 0 0 0 0 0 0 0 0 0 0 0 0 0 0 0.17 0"/>
<feBlend mode="normal" in2="BackgroundImageFix" result="effect1_dropShadow_778_70"/>
<feBlend mode="normal" in="BackgroundImageFix" in2="effect1_dropShadow_778_70" result="BackgroundImageFix"/>
<feBlend mode="normal" in="SourceGraphic" in2="BackgroundImageFix" result="shape"/>
</filter>
<filter id="filter3_d_778_70" x="135.613" y="-31.1" width="145.2" height="1088.2" filterUnits="userSpaceOnUse" color-interpolation-filters="sRGB">
<feFlood flood-opacity="0" result="BackgroundImageFix"/>
<feColorMatrix in="SourceAlpha" type="matrix" values="0 0 0 0 0 0 0 0 0 0 0 0 0 0 0 0 0 0 127 0" result="hardAlpha"/>
<feOffset dx="8" dy="1"/>
<feGaussianBlur stdDeviation="16.05"/>
<feComposite in2="hardAlpha" operator="out"/>
<feColorMatrix type="matrix" values="0 0 0 0 0 0 0 0 0 0 0 0 0 0 0 0 0 0 0.17 0"/>
<feBlend mode="normal" in2="BackgroundImageFix" result="effect1_dropShadow_778_70"/>
<feBlend mode="normal" in="BackgroundImageFix" in2="effect1_dropShadow_778_70" result="BackgroundImageFix"/>
<feBlend mode="normal" in="SourceGraphic" in2="BackgroundImageFix" result="shape"/>
</filter>
<filter id="filter4_d_778_70" x="50.6134" y="-31.1" width="149.2" height="1088.2" filterUnits="userSpaceOnUse" color-interpolation-filters="sRGB">
<feFlood flood-opacity="0" result="BackgroundImageFix"/>
<feColorMatrix in="SourceAlpha" type="matrix" values="0 0 0 0 0 0 0 0 0 0 0 0 0 0 0 0 0 0 127 0" result="hardAlpha"/>
<feOffset dx="8" dy="1"/>
<feGaussianBlur stdDeviation="16.05"/>
<feComposite in2="hardAlpha" operator="out"/>
<feColorMatrix type="matrix" values="0 0 0 0 0 0 0 0 0 0 0 0 0 0 0 0 0 0 0.17 0"/>
<feBlend mode="normal" in2="BackgroundImageFix" result="effect1_dropShadow_778_70"/>
<feBlend mode="normal" in="BackgroundImageFix" in2="effect1_dropShadow_778_70" result="BackgroundImageFix"/>
<feBlend mode="normal" in="SourceGraphic" in2="BackgroundImageFix" result="shape"/>
</filter>
<filter id="filter5_d_778_70" x="-38.3866" y="-31.1" width="153.2" height="1088.2" filterUnits="userSpaceOnUse" color-interpolation-filters="sRGB">
<feFlood flood-opacity="0" result="BackgroundImageFix"/>
<feColorMatrix in="SourceAlpha" type="matrix" values="0 0 0 0 0 0 0 0 0 0 0 0 0 0 0 0 0 0 127 0" result="hardAlpha"/>
<feOffset dx="8" dy="1"/>
<feGaussianBlur stdDeviation="16.05"/>
<feComposite in2="hardAlpha" operator="out"/>
<feColorMatrix type="matrix" values="0 0 0 0 0 0 0 0 0 0 0 0 0 0 0 0 0 0 0.17 0"/>
<feBlend mode="normal" in2="BackgroundImageFix" result="effect1_dropShadow_778_70"/>
<feBlend mode="normal" in="BackgroundImageFix" in2="effect1_dropShadow_778_70" result="BackgroundImageFix"/>
<feBlend mode="normal" in="SourceGraphic" in2="BackgroundImageFix" result="shape"/>
</filter>
<filter id="filter6_f_778_70" x="582.096" y="-287.402" width="1544.78" height="1389.3" filterUnits="userSpaceOnUse" color-interpolation-filters="sRGB">
<feFlood flood-opacity="0" result="BackgroundImageFix"/>
<feBlend mode="normal" in="SourceGraphic" in2="BackgroundImageFix" result="shape"/>
<feGaussianBlur stdDeviation="222" result="effect1_foregroundBlur_778_70"/>
</filter>
<filter id="filter7_d_778_70" x="1004.9" y="-33.1" width="137.2" height="1088.2" filterUnits="userSpaceOnUse" color-interpolation-filters="sRGB">
<feFlood flood-opacity="0" result="BackgroundImageFix"/>
<feColorMatrix in="SourceAlpha" type="matrix" values="0 0 0 0 0 0 0 0 0 0 0 0 0 0 0 0 0 0 127 0" result="hardAlpha"/>
<feOffset dx="-8" dy="-1"/>
<feGaussianBlur stdDeviation="16.05"/>
<feComposite in2="hardAlpha" operator="out"/>
<feColorMatrix type="matrix" values="0 0 0 0 0 0 0 0 0 0 0 0 0 0 0 0 0 0 0.19 0"/>
<feBlend mode="normal" in2="BackgroundImageFix" result="effect1_dropShadow_778_70"/>
<feBlend mode="normal" in="BackgroundImageFix" in2="effect1_dropShadow_778_70" result="BackgroundImageFix"/>
<feBlend mode="normal" in="SourceGraphic" in2="BackgroundImageFix" result="shape"/>
</filter>
<filter id="filter8_d_778_70" x="1077.9" y="-33.1" width="141.2" height="1088.2" filterUnits="userSpaceOnUse" color-interpolation-filters="sRGB">
<feFlood flood-opacity="0" result="BackgroundImageFix"/>
<feColorMatrix in="SourceAlpha" type="matrix" values="0 0 0 0 0 0 0 0 0 0 0 0 0 0 0 0 0 0 127 0" result="hardAlpha"/>
<feOffset dx="-8" dy="-1"/>
<feGaussianBlur stdDeviation="16.05"/>
<feComposite in2="hardAlpha" operator="out"/>
<feColorMatrix type="matrix" values="0 0 0 0 0 0 0 0 0 0 0 0 0 0 0 0 0 0 0.19 0"/>
<feBlend mode="normal" in2="BackgroundImageFix" result="effect1_dropShadow_778_70"/>
<feBlend mode="normal" in="BackgroundImageFix" in2="effect1_dropShadow_778_70" result="BackgroundImageFix"/>
<feBlend mode="normal" in="SourceGraphic" in2="BackgroundImageFix" result="shape"/>
</filter>
<filter id="filter9_d_778_70" x="1154.9" y="-33.1" width="145.2" height="1088.2" filterUnits="userSpaceOnUse" color-interpolation-filters="sRGB">
<feFlood flood-opacity="0" result="BackgroundImageFix"/>
<feColorMatrix in="SourceAlpha" type="matrix" values="0 0 0 0 0 0 0 0 0 0 0 0 0 0 0 0 0 0 127 0" result="hardAlpha"/>
<feOffset dx="-8" dy="-1"/>
<feGaussianBlur stdDeviation="16.05"/>
<feComposite in2="hardAlpha" operator="out"/>
<feColorMatrix type="matrix" values="0 0 0 0 0 0 0 0 0 0 0 0 0 0 0 0 0 0 0.19 0"/>
<feBlend mode="normal" in2="BackgroundImageFix" result="effect1_dropShadow_778_70"/>
<feBlend mode="normal" in="BackgroundImageFix" in2="effect1_dropShadow_778_70" result="BackgroundImageFix"/>
<feBlend mode="normal" in="SourceGraphic" in2="BackgroundImageFix" result="shape"/>
</filter>
<filter id="filter10_d_778_70" x="1235.9" y="-33.1" width="149.2" height="1088.2" filterUnits="userSpaceOnUse" color-interpolation-filters="sRGB">
<feFlood flood-opacity="0" result="BackgroundImageFix"/>
<feColorMatrix in="SourceAlpha" type="matrix" values="0 0 0 0 0 0 0 0 0 0 0 0 0 0 0 0 0 0 127 0" result="hardAlpha"/>
<feOffset dx="-8" dy="-1"/>
<feGaussianBlur stdDeviation="16.05"/>
<feComposite in2="hardAlpha" operator="out"/>
<feColorMatrix type="matrix" values="0 0 0 0 0 0 0 0 0 0 0 0 0 0 0 0 0 0 0.19 0"/>
<feBlend mode="normal" in2="BackgroundImageFix" result="effect1_dropShadow_778_70"/>
<feBlend mode="normal" in="BackgroundImageFix" in2="effect1_dropShadow_778_70" result="BackgroundImageFix"/>
<feBlend mode="normal" in="SourceGraphic" in2="BackgroundImageFix" result="shape"/>
</filter>
<filter id="filter11_d_778_70" x="1320.9" y="-33.1" width="153.2" height="1088.2" filterUnits="userSpaceOnUse" color-interpolation-filters="sRGB">
<feFlood flood-opacity="0" result="BackgroundImageFix"/>
<feColorMatrix in="SourceAlpha" type="matrix" values="0 0 0 0 0 0 0 0 0 0 0 0 0 0 0 0 0 0 127 0" result="hardAlpha"/>
<feOffset dx="-8" dy="-1"/>
<feGaussianBlur stdDeviation="16.05"/>
<feComposite in2="hardAlpha" operator="out"/>
<feColorMatrix type="matrix" values="0 0 0 0 0 0 0 0 0 0 0 0 0 0 0 0 0 0 0.19 0"/>
<feBlend mode="normal" in2="BackgroundImageFix" result="effect1_dropShadow_778_70"/>
<feBlend mode="normal" in="BackgroundImageFix" in2="effect1_dropShadow_778_70" result="BackgroundImageFix"/>
<feBlend mode="normal" in="SourceGraphic" in2="BackgroundImageFix" result="shape"/>
</filter>
<filter id="filter12_d_778_70" x="22.5846" y="183.566" width="339.114" height="291.705" filterUnits="userSpaceOnUse" color-interpolation-filters="sRGB">
<feFlood flood-opacity="0" result="BackgroundImageFix"/>
<feColorMatrix in="SourceAlpha" type="matrix" values="0 0 0 0 0 0 0 0 0 0 0 0 0 0 0 0 0 0 127 0" result="hardAlpha"/>
<feMorphology radius="11.4771" operator="erode" in="SourceAlpha" result="effect1_dropShadow_778_70"/>
<feOffset dy="23.9106"/>
<feGaussianBlur stdDeviation="23.9106"/>
<feComposite in2="hardAlpha" operator="out"/>
<feColorMatrix type="matrix" values="0 0 0 0 0 0 0 0 0 0 0 0 0 0 0 0 0 0 0.25 0"/>
<feBlend mode="normal" in2="BackgroundImageFix" result="effect1_dropShadow_778_70"/>
<feBlend mode="normal" in="SourceGraphic" in2="effect1_dropShadow_778_70" result="shape"/>
</filter>
<filter id="filter13_d_778_70" x="138.065" y="566.145" width="285.078" height="233.156" filterUnits="userSpaceOnUse" color-interpolation-filters="sRGB">
<feFlood flood-opacity="0" result="BackgroundImageFix"/>
<feColorMatrix in="SourceAlpha" type="matrix" values="0 0 0 0 0 0 0 0 0 0 0 0 0 0 0 0 0 0 127 0" result="hardAlpha"/>
<feMorphology radius="10.023" operator="erode" in="SourceAlpha" result="effect1_dropShadow_778_70"/>
<feOffset dy="20.8813"/>
<feGaussianBlur stdDeviation="20.8813"/>
<feComposite in2="hardAlpha" operator="out"/>
<feColorMatrix type="matrix" values="0 0 0 0 0 0 0 0 0 0 0 0 0 0 0 0 0 0 0.25 0"/>
<feBlend mode="normal" in2="BackgroundImageFix" result="effect1_dropShadow_778_70"/>
<feBlend mode="normal" in="BackgroundImageFix" in2="effect1_dropShadow_778_70" result="BackgroundImageFix"/>
<feBlend mode="normal" in="SourceGraphic" in2="BackgroundImageFix" result="shape"/>
</filter>
<filter id="filter14_d_778_70" x="1077.48" y="255.532" width="326.905" height="306.172" filterUnits="userSpaceOnUse" color-interpolation-filters="sRGB">
<feFlood flood-opacity="0" result="BackgroundImageFix"/>
<feColorMatrix in="SourceAlpha" type="matrix" values="0 0 0 0 0 0 0 0 0 0 0 0 0 0 0 0 0 0 127 0" result="hardAlpha"/>
<feMorphology radius="10.5856" operator="erode" in="SourceAlpha" result="effect1_dropShadow_778_70"/>
<feOffset dy="22.0534"/>
<feGaussianBlur stdDeviation="22.0534"/>
<feComposite in2="hardAlpha" operator="out"/>
<feColorMatrix type="matrix" values="0 0 0 0 0 0 0 0 0 0 0 0 0 0 0 0 0 0 0.25 0"/>
<feBlend mode="normal" in2="BackgroundImageFix" result="effect1_dropShadow_778_70"/>
<feBlend mode="normal" in="SourceGraphic" in2="effect1_dropShadow_778_70" result="shape"/>
</filter>
<linearGradient id="paint0_linear_778_70" x1="137.456" y1="199.813" x2="27.8017" y2="626.963" gradientUnits="userSpaceOnUse">
<stop stop-color="#FFA500"/>
<stop offset="1" stop-color="#FFD700"/>
</linearGradient>
<linearGradient id="paint1_linear_778_70" x1="1298.26" y1="199.813" x2="1407.91" y2="626.963" gradientUnits="userSpaceOnUse">
<stop stop-color="#FFA500"/>
<stop offset="1" stop-color="#FFD700"/>
</linearGradient>
<clipPath id="clip0_778_70">
<rect width="1440" height="1000" fill="white"/>
</clipPath>
<clipPath id="clip1_778_70">
<rect width="16.705" height="16.705" fill="white" transform="translate(331.616 606.385) rotate(-10.341)"/>
</clipPath>
<clipPath id="clip2_778_70">
<rect width="13.364" height="13.364" fill="white" transform="translate(203.742 715.222) rotate(-10.341)"/>
</clipPath>
<clipPath id="clip3_778_70">
<rect width="17.6427" height="17.6427" fill="white" transform="translate(1324.67 325.506) rotate(11.4388)"/>
</clipPath>
<clipPath id="clip4_778_70">
<rect width="194.113" height="88.2136" fill="white" transform="translate(1152.72 331.775) rotate(11.0153)"/>
</clipPath>
<clipPath id="clip5_778_70">
<rect width="10.5856" height="10.5856" fill="white" transform="translate(1132.49 435.69) rotate(11.0153)"/>
</clipPath>
</defs>
</svg>
